<?xml version="1.0" ?><svg fill="none" height="20" viewBox="0 0 89 82" width="20" xmlns="http://www.w3.org/2000/svg"><path clip-rule="evenodd" d="M40.2742 0.081543C62.3028 0.081543 80.1598 18.2723 80.1598 40.7116C80.1598 63.1519 62.3028 81.3427 40.2742 81.3427C18.2467 81.3427 0.389648 63.1519 0.389648 40.7116C0.389648 18.2723 18.2467 0.081543 40.2742 0.081543V0.081543Z" fill="url(#paint0_radial)" fill-rule="evenodd"/><path d="M46.5614 30.4651C46.8655 31.137 46.5772 31.9336 45.9176 32.2444C45.2581 32.5541 44.4761 32.2604 44.171 31.5886C43.4878 30.0889 42.7552 28.9846 42.0058 28.3047C41.5003 27.846 41.0115 27.6066 40.5584 27.6006C40.1042 27.5946 39.6046 27.8209 39.0734 28.2926H39.0685C38.2993 28.9735 37.5213 30.1091 36.7611 31.7284C36.4491 32.3942 35.6641 32.6768 35.0095 32.358C34.3559 32.0392 34.0785 31.2396 34.3914 30.5737C35.3126 28.6124 36.3098 27.1872 37.3456 26.2689C38.3783 25.3486 39.4713 24.9101 40.589 24.9252C41.7056 24.9393 42.772 25.407 43.7573 26.3001C44.7723 27.2204 45.7212 28.6215 46.5614 30.4651Z" fill="#2B2A29"/><path d="M73.4708 31.2348C73.766 31.9107 73.4688 32.7023 72.8063 33.003C72.1438 33.3048 71.3658 33.002 71.0706 32.3261C70.3182 30.6143 69.5106 29.348 68.6881 28.6057C68.2182 28.1812 67.7699 27.9539 67.3602 27.9479H67.3552C66.9563 27.9409 66.514 28.1491 66.0361 28.5926C65.2561 29.3158 64.4653 30.574 63.6912 32.4297C63.4069 33.1107 62.6338 33.4285 61.9653 33.1378C61.2979 32.8481 60.9859 32.0616 61.2703 31.3807C62.1984 29.1549 63.2114 27.5848 64.2639 26.6092C65.2601 25.6849 66.3146 25.2544 67.3967 25.2715C68.466 25.2896 69.4839 25.7482 70.4298 26.6011C71.5346 27.5999 72.5654 29.176 73.4708 31.2348V31.2348Z" fill="#2B2A29"/><path d="M61.3843 50.5301C60.6586 50.5522 60.0514 49.9719 60.0297 49.2336C60.0069 48.4944 60.5766 47.8768 61.3013 47.8537C62.654 47.8084 63.4607 47.2623 63.7697 46.6206C63.903 46.342 63.9385 46.0503 63.8793 45.7958C63.8279 45.5776 63.6927 45.3764 63.4755 45.2376C62.8604 44.8423 61.7002 44.8544 59.9359 45.7254C59.2822 46.0463 58.4953 45.7666 58.1794 45.1008C57.8644 44.434 58.1389 43.6324 58.7925 43.3115C61.5077 41.9718 63.5742 42.1357 64.8765 42.9705C65.7029 43.5016 66.2252 44.2932 66.4345 45.1773C66.634 46.0251 66.5352 46.9525 66.1285 47.7963C65.4373 49.2326 63.8576 50.4466 61.3843 50.5301Z" fill="#2B2A29"/><path d="M61.3013 50.4876C60.5766 50.4644 60.0069 49.8459 60.0297 49.1076C60.0514 48.3694 60.6586 47.789 61.3843 47.8112C63.8576 47.8946 65.4373 49.1086 66.1285 50.5449C66.5352 51.3888 66.634 52.3161 66.4345 53.165C66.2252 54.0491 65.7039 54.8396 64.8765 55.3707C63.5742 56.2055 61.5077 56.3695 58.7925 55.0297C58.1389 54.7089 57.8644 53.9063 58.1794 53.2404C58.4953 52.5746 59.2822 52.295 59.9359 52.6158C61.7002 53.4869 62.8604 53.4989 63.4755 53.1036C63.6927 52.9648 63.8279 52.7647 63.8793 52.5454C63.9385 52.291 63.903 51.9993 63.7697 51.7207C63.4607 51.079 62.654 50.5328 61.3013 50.4876V50.4876Z" fill="#2B2A29"/><path d="M81.4689 38.681C82.0001 36.9008 82.6962 35.9191 84.4171 35.552C86.3158 35.1477 88.1503 36.251 88.5126 38.0152C88.9174 39.9896 88.097 42.3009 86.5982 44.6041C84.348 48.0641 82.9667 48.8949 79.1655 46.2506C76.8966 44.6725 75.1618 42.9396 74.7531 40.9451C74.3907 39.1809 75.6377 37.4218 77.5364 37.0174C79.2573 36.6513 80.2812 37.2669 81.4689 38.681V38.681Z" fill="url(#paint1_linear)"/><defs><radialGradient cx="0" cy="0" gradientTransform="translate(46.6292 26.1133) scale(126.429 128.792)" gradientUnits="userSpaceOnUse" id="paint0_radial" r="1"><stop stop-color="#FFE28E"/><stop offset="1" stop-color="#F9B86C"/></radialGradient><linearGradient gradientUnits="userSpaceOnUse" id="paint1_linear" x1="81.6664" x2="82.6764" y1="47.9705" y2="36.068"><stop stop-color="#D6373D"/><stop offset="1" stop-color="#EA514F"/></linearGradient></defs></svg>